<svg width="55" height="189" viewBox="0 0 55 189" fill="none" xmlns="http://www.w3.org/2000/svg">
<style>
	@keyframes blink {
    0% {
           fill: #760B28;
    }
    50% {
           fill: #f7dd56;
    }
    100% {
           fill: #760B28;
    }
}
@-webkit-keyframes blink {
    0% {
           fill: #760B28;
         
    }
    50% {
           fill: #f7dd56;
    }
    100% {
           fill: #760B28;
    }
}
#blink-text{ -moz-transition:all 1s ease-in-out;
    -webkit-transition:all 1s ease-in-out;
    -o-transition:all 1s ease-in-out;
    -ms-transition:all 1s ease-in-out;
    transition:all 1s ease-in-out;
    -moz-animation:blink normal 1.5s infinite ease-in-out;
    /* Firefox */
    -webkit-animation:blink normal 1.5s infinite ease-in-out;
    /* Webkit */
    -ms-animation:blink normal 1.5s infinite ease-in-out;
    /* IE */
    animation:blink normal 1.5s infinite ease-in-out;}
</style>
<path id="blink-color" d="M0 10C0 4.47718 4.47715 3.05176e-05 10 3.05176e-05H61V189H10C4.47715 189 0 184.523 0 179V10Z" fill="#F7DD56"/>
<path id="blink-text" d="M38 178.883L17.7 178.883L17.7 166.094L20.542 166.094L20.542 175.751L26.371 175.751L26.371 166.906L29.213 166.906L29.213 175.751L35.158 175.751L35.158 165.949L38 165.949L38 178.883ZM38 162.597L23.703 162.597L23.703 159.668L25.849 159.668L25.849 159.204C25.269 158.933 24.7277 158.45 24.225 157.754C23.7223 157.058 23.471 156.023 23.471 154.651C23.471 153.568 23.7127 152.611 24.196 151.78C24.6793 150.929 25.3657 150.262 26.255 149.779C27.125 149.295 28.1787 149.054 29.416 149.054L38 149.054L38 152.041L29.648 152.041C28.4107 152.041 27.502 152.35 26.922 152.969C26.3227 153.587 26.023 154.438 26.023 155.521C26.023 156.758 26.429 157.754 27.241 158.508C28.053 159.242 29.2323 159.61 30.779 159.61L38 159.61L38 162.597ZM43.8 133.561L36.057 133.561L36.057 134.025C36.4437 134.238 36.8207 134.547 37.188 134.953C37.536 135.359 37.826 135.881 38.058 136.519C38.29 137.138 38.406 137.911 38.406 138.839C38.406 140.038 38.116 141.14 37.536 142.145C36.956 143.15 36.1247 143.953 35.042 144.552C33.94 145.151 32.6157 145.451 31.069 145.451L30.634 145.451C29.0873 145.451 27.7727 145.151 26.69 144.552C25.588 143.933 24.747 143.121 24.167 142.116C23.587 141.111 23.297 140.018 23.297 138.839C23.297 137.447 23.5483 136.384 24.051 135.649C24.5537 134.895 25.124 134.334 25.762 133.967L25.762 133.503L23.703 133.503L23.703 130.574L43.8 130.574L43.8 133.561ZM35.796 137.998C35.796 136.683 35.3803 135.61 34.549 134.779C33.7177 133.948 32.5287 133.532 30.982 133.532L30.721 133.532C29.1937 133.532 28.0143 133.957 27.183 134.808C26.3517 135.639 25.936 136.703 25.936 137.998C25.936 139.274 26.3517 140.337 27.183 141.188C28.0143 142.019 29.1937 142.435 30.721 142.435L30.982 142.435C32.5287 142.435 33.7177 142.019 34.549 141.188C35.3803 140.337 35.796 139.274 35.796 137.998ZM38.261 120.696C38.261 121.779 38.0193 122.745 37.536 123.596C37.0527 124.447 36.3663 125.114 35.477 125.597C34.5877 126.08 33.5243 126.322 32.287 126.322L23.703 126.322L23.703 123.335L32.084 123.335C33.3213 123.335 34.2397 123.026 34.839 122.407C35.419 121.788 35.709 120.928 35.709 119.826C35.709 118.608 35.303 117.632 34.491 116.897C33.6597 116.143 32.4707 115.766 30.924 115.766L23.703 115.766L23.703 112.779L38 112.779L38 115.708L35.854 115.708L35.854 116.172C36.434 116.443 36.985 116.926 37.507 117.622C38.0097 118.318 38.261 119.343 38.261 120.696ZM38 108.363L23.703 108.363L23.703 105.376L38 105.376L38 108.363ZM21.76 106.855C21.76 107.435 21.5763 107.928 21.209 108.334C20.8223 108.721 20.3293 108.914 19.73 108.914C19.1307 108.914 18.6473 108.721 18.28 108.334C17.8933 107.928 17.7 107.435 17.7 106.855C17.7 106.256 17.8933 105.763 18.28 105.376C18.6473 104.99 19.1307 104.796 19.73 104.796C20.3293 104.796 20.8223 104.99 21.209 105.376C21.5763 105.763 21.76 106.256 21.76 106.855ZM38 100.943L23.703 100.943L23.703 98.0145L25.385 98.0145L25.385 97.5505C24.7857 97.3185 24.3507 96.9511 24.08 96.4485C23.79 95.9265 23.645 95.2885 23.645 94.5345L23.645 92.8235L26.342 92.8235L26.342 94.6505C26.342 95.6171 26.6127 96.4098 27.154 97.0285C27.676 97.6471 28.488 97.9565 29.59 97.9565L38 97.9565L38 100.943ZM38.406 83.6844C38.406 85.1344 38.1063 86.4007 37.507 87.4834C36.8883 88.566 36.028 89.4167 34.926 90.0354C33.8047 90.6347 32.5093 90.9344 31.04 90.9344L30.692 90.9344C29.2033 90.9344 27.908 90.6347 26.806 90.0354C25.6847 89.436 24.8243 88.6047 24.225 87.5414C23.6063 86.4587 23.297 85.2117 23.297 83.8004C23.297 82.4277 23.6063 81.229 24.225 80.2044C24.8243 79.1604 25.6653 78.3484 26.748 77.7684C27.8307 77.1884 29.097 76.8984 30.547 76.8984L31.678 76.8984L31.678 87.8894C32.9347 87.8507 33.94 87.435 34.694 86.6424C35.4287 85.8304 35.796 84.825 35.796 83.6264C35.796 82.505 35.5447 81.664 35.042 81.1034C34.5393 80.5234 33.9593 80.0787 33.302 79.7694L34.578 77.3044C35.1193 77.575 35.6897 77.9714 36.289 78.4934C36.8883 78.996 37.391 79.663 37.797 80.4944C38.203 81.3257 38.406 82.389 38.406 83.6844ZM29.387 87.8604L29.387 79.9434C28.3043 80.0207 27.4633 80.4074 26.864 81.1034C26.2453 81.7994 25.936 82.708 25.936 83.8294C25.936 84.9507 26.2453 85.869 26.864 86.5844C27.4633 87.2804 28.3043 87.7057 29.387 87.8604ZM38 65.9982L17.7 65.9982L17.7 59.9662L35.912 54.4562L35.912 53.9922L17.7 53.9922L17.7 50.8892L38 50.8892L38 56.9212L19.759 62.4312L19.759 62.8952L38 62.8952L38 65.9982ZM38.406 39.8695C38.406 41.3001 38.116 42.5761 37.536 43.6975C36.9367 44.7995 36.086 45.6695 34.984 46.3075C33.882 46.9455 32.577 47.2645 31.069 47.2645L30.634 47.2645C29.126 47.2645 27.8307 46.9455 26.748 46.3075C25.646 45.6695 24.7953 44.7995 24.196 43.6975C23.5967 42.5761 23.297 41.3001 23.297 39.8695C23.297 38.4388 23.5967 37.1628 24.196 36.0415C24.7953 34.9201 25.646 34.0405 26.748 33.4025C27.8307 32.7645 29.126 32.4455 30.634 32.4455L31.069 32.4455C32.577 32.4455 33.882 32.7645 34.984 33.4025C36.086 34.0405 36.9367 34.9201 37.536 36.0415C38.116 37.1628 38.406 38.4388 38.406 39.8695ZM35.738 39.8695C35.738 38.5548 35.3223 37.4915 34.491 36.6795C33.6403 35.8481 32.4707 35.4325 30.982 35.4325L30.721 35.4325C29.2323 35.4325 28.0723 35.8385 27.241 36.6505C26.3903 37.4625 25.965 38.5355 25.965 39.8695C25.965 41.1648 26.3903 42.2281 27.241 43.0595C28.0723 43.8715 29.2323 44.2775 30.721 44.2775L30.982 44.2775C32.4707 44.2775 33.6403 43.8715 34.491 43.0595C35.3223 42.2281 35.738 41.1648 35.738 39.8695ZM38 27.3306L23.703 29.7666L23.703 26.7796L35.999 24.9816L35.999 24.5176L23.703 22.0236L23.703 17.1806L35.999 14.7156L35.999 14.2516L23.703 12.4536L23.703 9.46658L38 11.9026L38 16.9196L25.733 19.3846L25.733 19.8486L38 22.3136L38 27.3306Z" fill="#760B29"/>
</svg>
